<?xml version="1.0" encoding="utf-8"?>
<!-- Generator: Adobe Illustrator 23.1.0, SVG Export Plug-In . SVG Version: 6.00 Build 0)  -->
<svg version="1.1" id="Слой_1" xmlns="http://www.w3.org/2000/svg" xmlns:xlink="http://www.w3.org/1999/xlink" x="0px" y="0px"
	 viewBox="0 0 464 464" style="enable-background:new 0 0 464 464;" xml:space="preserve">
<style type="text/css">
	.st0{fill:#11B2FF;}
	.st1{fill:#E0E0E2;}
	.st2{fill:#C6C5CA;}
	.st3{fill:#ACABB1;}
	.st4{fill:#F1F2F2;}
</style>
<path class="st0" d="M374.1,116.6C361,50.1,302.4,0,232,0c-55.9,0-104.4,31.7-128.6,77.9C45.3,84.3,0,133.4,0,193.3
	c0,64.1,51.9,116,116,116h251.3c53.4,0,96.7-43.3,96.7-96.7C464,161.6,424.4,120.3,374.1,116.6z"/>
<path class="st1" d="M320,208c-8.8,0-16-7.2-16-16v-48H128c-17.7,0-32,14.3-32,32v256c0,17.7,14.3,32,32,32h208
	c17.7,0,32-14.3,32-32V208H320z"/>
<path class="st2" d="M320,208h48l-64-64v48C304,200.9,311.2,208,320,208z"/>
<g>
	<path class="st3" d="M256,216H144c-4.4,0-8-3.6-8-8s3.6-8,8-8h112c4.4,0,8,3.6,8,8S260.4,216,256,216z"/>
	<path class="st3" d="M320,264H144c-4.4,0-8-3.6-8-8c0-4.4,3.6-8,8-8h176c4.4,0,8,3.6,8,8C328,260.4,324.4,264,320,264z"/>
	<path class="st3" d="M320,312H144c-4.4,0-8-3.6-8-8c0-4.4,3.6-8,8-8h176c4.4,0,8,3.6,8,8C328,308.4,324.4,312,320,312z"/>
	<path class="st3" d="M320,360H144c-4.4,0-8-3.6-8-8c0-4.4,3.6-8,8-8h176c4.4,0,8,3.6,8,8C328,356.4,324.4,360,320,360z"/>
	<path class="st3" d="M320,408H176c-4.4,0-8-3.6-8-8c0-4.4,3.6-8,8-8h144c4.4,0,8,3.6,8,8C328,404.4,324.4,408,320,408z"/>
</g>
<path class="st4" d="M160,440h-16c-13.3,0-24-10.7-24-24v-16c0-4.4,3.6-8,8-8s8,3.6,8,8v16c0,4.4,3.6,8,8,8h16c4.4,0,8,3.6,8,8
	C168,436.4,164.4,440,160,440z"/>
</svg>
