<svg width="1440" height="916" viewBox="0 0 1440 916" fill="none" xmlns="http://www.w3.org/2000/svg">
<g clip-path="url(#clip0)">
<rect width="1440" height="916" rx="40" fill="white"/>
<rect x="304" y="198" width="1042" height="120" rx="20" fill="#F5F5F5"/>
<rect x="337" y="227" width="687" height="20" rx="6" fill="#DADADA"/>
<rect x="337" y="270" width="749" height="20" rx="6" fill="#DADADA"/>
<rect x="95" y="198" width="181" height="120" rx="20" fill="#FFFBEB"/>
<path d="M161.515 258.004C171.183 258.004 179.02 249.944 179.02 240.002C179.02 230.06 171.183 222 161.515 222C151.847 222 144.009 230.06 144.009 240.002C144.009 249.944 151.847 258.004 161.515 258.004Z" fill="#FFF0B6"/>
<path d="M214.032 250.796C200.027 250.796 193.025 272.398 182.522 272.398C172.018 272.398 172.025 265.197 158.014 265.197C144.009 265.197 137 294 137 294H235.038C235.038 294 228.036 250.796 214.032 250.796Z" fill="#FFF0B6"/>
<rect x="95" y="538" width="181" height="120" rx="20" fill="#F7EEFF"/>
<path d="M161.515 598.004C171.183 598.004 179.02 589.944 179.02 580.002C179.02 570.06 171.183 562 161.515 562C151.847 562 144.009 570.06 144.009 580.002C144.009 589.944 151.847 598.004 161.515 598.004Z" fill="#ECD9FF"/>
<path d="M214.032 590.796C200.027 590.796 193.025 612.398 182.522 612.398C172.018 612.398 172.025 605.197 158.014 605.197C144.009 605.197 137 634 137 634H235.038C235.038 634 228.036 590.796 214.032 590.796Z" fill="#ECD9FF"/>
<rect x="95" y="368" width="181" height="120" rx="20" fill="#E6F9FF"/>
<path d="M161.515 428.004C171.183 428.004 179.02 419.944 179.02 410.002C179.02 400.06 171.183 392 161.515 392C151.847 392 144.009 400.06 144.009 410.002C144.009 419.944 151.847 428.004 161.515 428.004Z" fill="#C5F0FF"/>
<path d="M214.032 420.796C200.027 420.796 193.025 442.398 182.522 442.398C172.018 442.398 172.025 435.197 158.014 435.197C144.009 435.197 137 464 137 464H235.038C235.038 464 228.036 420.796 214.032 420.796Z" fill="#C5F0FF"/>
<rect x="95" y="708" width="181" height="120" rx="20" fill="#EEFFEE"/>
<path d="M161.515 768.004C171.183 768.004 179.02 759.944 179.02 750.002C179.02 740.06 171.183 732 161.515 732C151.847 732 144.009 740.06 144.009 750.002C144.009 759.944 151.847 768.004 161.515 768.004Z" fill="#D0FFD0"/>
<path d="M214.032 760.796C200.027 760.796 193.025 782.398 182.522 782.398C172.018 782.398 172.025 775.197 158.014 775.197C144.009 775.197 137 804 137 804H235.038C235.038 804 228.036 760.796 214.032 760.796Z" fill="#D0FFD0"/>
<rect x="304" y="368" width="1041" height="120" rx="20" fill="#F5F5F5"/>
<rect x="337" y="397" width="840" height="20" rx="6" fill="#DADADA"/>
<rect x="337" y="440" width="865" height="20" rx="6" fill="#DADADA"/>
<rect x="304" y="538" width="1041" height="120" rx="20" fill="#F5F5F5"/>
<rect x="337" y="567" width="731" height="20" rx="6" fill="#DADADA"/>
<rect x="337" y="610" width="628" height="20" rx="6" fill="#E3E3E3"/>
<rect x="304" y="708" width="1041" height="120" rx="20" fill="#F5F5F5"/>
<rect x="337" y="736" width="477" height="20" rx="6" fill="#E3E3E3"/>
<rect x="337" y="779" width="564" height="20" rx="6" fill="#DADADA"/>
<rect x="95" y="70" width="1082" height="56" rx="15" fill="#F5F5F5"/>
<path d="M125.4 86C123.816 86.0008 122.255 86.368 120.841 87.0719C119.427 87.7758 118.201 88.7968 117.26 90.0529C116.32 91.3091 115.691 92.7652 115.425 94.3044C115.159 95.8436 115.263 97.4228 115.728 98.9152C116.194 100.408 117.008 101.772 118.105 102.897C119.203 104.023 120.553 104.879 122.047 105.397C123.541 105.915 125.137 106.081 126.707 105.88C128.278 105.679 129.779 105.118 131.089 104.241L137.346 110.404C137.52 110.588 137.729 110.736 137.962 110.838C138.195 110.94 138.446 110.995 138.701 111C138.956 111.004 139.209 110.958 139.445 110.864C139.682 110.77 139.896 110.63 140.077 110.452C140.257 110.274 140.399 110.062 140.495 109.829C140.59 109.596 140.637 109.347 140.632 109.095C140.628 108.844 140.572 108.596 140.468 108.367C140.365 108.137 140.215 107.931 140.029 107.759L133.777 101.591C134.811 100.09 135.411 98.3398 135.512 96.5281C135.613 94.7165 135.211 92.912 134.349 91.3087C133.488 89.7054 132.199 88.364 130.622 87.4286C129.046 86.4933 127.24 85.9993 125.4 86V86ZM119.072 95.9813C119.072 94.3268 119.739 92.7401 120.926 91.5702C122.112 90.4002 123.722 89.743 125.4 89.743C127.078 89.743 128.687 90.4002 129.874 91.5702C131.06 92.7401 131.727 94.3268 131.727 95.9813C131.727 97.6358 131.06 99.2226 129.874 100.392C128.687 101.562 127.078 102.22 125.4 102.22C123.722 102.22 122.112 101.562 120.926 100.392C119.739 99.2226 119.072 97.6358 119.072 95.9813Z" fill="#DADADA"/>
<rect x="1321" y="86" width="24" height="24" rx="12" fill="#FF7A7A"/>
<rect x="1284" y="86" width="24" height="24" rx="12" fill="#DADADA"/>
<rect x="1247" y="86" width="24" height="24" rx="12" fill="#DADADA"/>
</g>
<defs>
<clipPath id="clip0">
<rect width="1440" height="916" rx="40" fill="white"/>
</clipPath>
</defs>
</svg>
