<?xml version="1.0" encoding="utf-8"?>
<!-- Generator: Adobe Illustrator 23.1.0, SVG Export Plug-In . SVG Version: 6.00 Build 0)  -->
<svg version="1.1" id="Слой_1" xmlns="http://www.w3.org/2000/svg" xmlns:xlink="http://www.w3.org/1999/xlink" x="0px" y="0px"
	 viewBox="0 0 69 52.5" style="enable-background:new 0 0 69 52.5;" xml:space="preserve">
<style type="text/css">
	.st0{fill:#FF5F00;}
	.st1{fill:#EB001B;}
	.st2{fill:#F79E1B;}
</style>
<path class="st0" d="M43.9,9.5H25.3v33.7h18.6V9.5z"/>
<path class="st1" d="M26.5,26.3c0-6.8,3.2-12.9,8.1-16.8C31,6.7,26.4,4.9,21.5,4.9C9.8,4.9,0.3,14.5,0.3,26.3s9.5,21.4,21.2,21.4
	c5,0,9.5-1.7,13.1-4.6C29.7,39.3,26.5,33.2,26.5,26.3z"/>
<path class="st2" d="M69,26.3c0,11.8-9.5,21.4-21.2,21.4c-5,0-9.5-1.7-13.1-4.6c5-3.9,8.1-10,8.1-16.8s-3.2-12.9-8.1-16.8
	c3.6-2.9,8.1-4.6,13.1-4.6C59.5,4.9,69,14.6,69,26.3z"/>
</svg>
