<?xml version="1.0" encoding="utf-8"?>
<!-- Generator: Adobe Illustrator 23.1.0, SVG Export Plug-In . SVG Version: 6.00 Build 0)  -->
<svg version="1.1"
	 id="Слой_1" shape-rendering="geometricPrecision" text-rendering="geometricPrecision" image-rendering="optimizeQuality"
	 xmlns="http://www.w3.org/2000/svg" xmlns:xlink="http://www.w3.org/1999/xlink" x="0px" y="0px" viewBox="0 0 840.8 407.4"
	 style="enable-background:new 0 0 840.8 407.4;" xml:space="preserve">
<style type="text/css">
	.st0{fill:#FCB316;}
	.st1{fill:#0269B3;}
</style>
<path class="st0" d="M340,394.9c-1.6-4.4-4.5-7.4-6.6-11.3c-5.1-6.7-11.1-12.5-17.1-18.3c-2.1-0.7-3-2.7-5-3.5
	c-1.3-1.7-3.4-2.6-5.1-3.9c-3.4-2.6-7.1-4.8-10.9-7c-7.2-4.6-16.1-7.5-24.9-10.5c-9.5-2.3-19.5-4-29.9-5.4
	c-10.3-1.5-20.6-2.9-28.4-7c-4.5-1.3-7.8-3.8-11.7-5.8c-3.6-2.4-7.5-4.4-10.5-7.4c-3.7-2.2-6-5.9-8.9-8.9c-1-2-2.7-3.2-3.5-5.4
	c-1-0.4-1.3-1.6-1.9-2.3c-0.7-0.8-0.7-2.4-1.9-2.7c-0.6,4.1-0.4,9,0,13.2c0.5,1.8,0.7,4,1.2,5.8c0.3,1.6,1.8,4.2,1.2,5.4
	c-31.2-1.6-54-11.5-73.8-24.5c-9.8-6.5-18.2-14.4-26-22.9c-3.4-4.7-7.1-9.2-10.1-14.4c-3.1-5.1-5.7-10.9-8.5-16.3
	c-4.6-11.7-8.9-23.7-10.5-38.4c-2.1-13.7-1.6-31.2,1.5-43.9c1.1-7,3.4-12.9,5.4-19c1.3-2.8,2.7-5.6,3.9-8.5c1.7-2.4,2.6-5.7,4.7-7.8
	c5.7-10.7,14.2-18.7,22.9-26.4c9.4-6.9,20.1-12.5,33-15.9c12.4-2.8,29.3-3.3,42.7-0.4c27.2,5.6,47.7,17.8,64.9,33.4
	c17.4,15.3,30.8,34.7,40,58.3c9.5,22.4,12.8,57.3,4.3,82.7c-3.5-2-7-3.9-10.5-5.8c-4.2-1.2-8.3-2.6-13.2-3.1
	c-5.9-0.1-11.7,0-15.5,1.9c7.7-0.8,13.9,1.3,18.7,3.1c2.8,1.1,4.4,1.8,6.6,3.1c4.3,2.5,8.1,4.8,11.3,8.2c9.1,8,15.6,18.6,18.7,32.6
	c0,0.4,0.5,0.3,0.4-0.4c0.4-0.1,0.6-0.4,0.8-0.8c0.5-0.6,1.1-1.2,1.6-1.9c1-1.2,2-2.4,2.7-3.9c2.1-2.5,3.8-5.3,5.4-8.2
	c3.7-5.4,6.5-11.6,9.7-17.5c5.5-12.6,10-26.2,12.8-41.6c5.6-34.2-1.1-66.6-12.8-90.5c-12-24.1-28.8-43.4-50.5-57.9
	c-21.9-14.4-47.5-25-82.7-26c-0.2-0.7-0.5,0.1-1.2,0c-18.6-0.6-33.6,2-48.5,5.8c-6.9,2.3-14.1,4.3-20.2,7.4c-7,2.3-12.6,6.1-19,8.9
	c-2.3,2.2-5.8,3.3-8.2,5.4c-3.1,1.5-5.4,3.9-8.5,5.4c-5,4.4-10.3,8.3-15.2,12.8c-4.8,4.4-9,9.4-13.6,14c-0.7,1.6-1.9,2.7-3.1,3.9
	c-0.8,1.5-1.8,2.8-3.1,3.9c-0.5,1.8-2.1,2.5-2.7,4.3c-1.3,1-1.6,3-3.1,3.9c-1.3,3.2-3.6,5.5-5.1,8.5c-1.8,2.9-3.2,6.1-5,8.9
	c-2.8,6.5-5.8,12.8-8.1,19.8c-2.4,6.8-4.4,14-5.8,21.8c-1.5,7.3-2.9,16.8-2.7,24.5c-1,2.8-0.2,8,0,11.3c0,0.6-0.4,0.8-0.4,1.2
	c0,3.7,1,8.2,1.2,10.5c0.8,8.5,2.3,16.4,4.7,23.3c1.5,7.7,4.7,13.7,7,20.6c3.5,5.8,5.9,12.7,10.1,17.9c3.1,6.1,7.5,10.9,11.7,15.9
	c4.5,4.8,9,9.7,14.4,13.6c9.9,8.6,21.5,15.5,34.2,21.4c23.7,11.5,59.1,19,90.9,17.1c8.1-1.1,16.3-2.1,23.7-3.9
	c6.8-2.5,14.7-4,22.9-5c18.7-1.2,34.9,0.5,49.3,4.7c14.6,3.9,27.2,9.8,38.1,17.5c5.8,3.4,10.6,7.8,15.5,12c5,4.3,9,9.6,13.6,14.4
	c0.6,1.8,1.8,3.1,2.7,4.7c1.2,1.3,0.6,4.3,3.5,3.9c1.8-1.8-0.3-4.4-0.4-6.6C341.8,399,341.4,396.5,340,394.9L340,394.9z"/>
<path class="st0" d="M267.4,288.5c-0.4,0-0.5,0.3-0.8,0.4c-0.7,1.5-0.4,3.9,0,5.4c2.1,4.3,2.8,9.9,7.4,11.7c2.2-0.7,2-3.9,1.9-7
	c-1-3.8-2.4-7.2-4.7-9.7C269.6,288.7,268.5,287.7,267.4,288.5z M240.2,299.4c0-0.2-0.3-0.4-0.4,0c-3.8-0.5-5.1,1.6-7,3.1
	c-3.3,8.7,2,17.2,11.3,17.1c3.7-0.9,6-3.3,6.6-7.4C250.2,304.9,247.1,300.2,240.2,299.4L240.2,299.4z"/>
<path class="st1" d="M464.4,271.7c1.5,6.3,4.7,10.8,8.3,15c3.6,4.2,7.8,7.7,12.9,10.3c4.8,3,10,5.5,16,7.2c2.9,1,5.7,2.2,9.3,2.6
	c2.5,1.4,5.5,2.1,5.7,5.7c-0.1,4.3-3,5.9-6.7,6.7c-3.7-0.8-8.3-0.7-11.4-2.1c-7.8-0.9-14.1-3.4-20.7-5.7c-12.6-4.9-23.2-12-32-20.7
	c-1.8-3-4.3-5.4-6.2-8.3s-3.2-6.4-5.2-9.3c-15.4-2-25.9-9-35.1-17.1c-8.5-9.7-15.3-21.3-18.1-36.7c-3.3-14.8-2.3-33.3,1.6-47.6
	c8.5-27.7,26.3-46.1,59.9-48.6c9.3,0.3,17.4,1.4,24.8,4.2c7.5,2.7,14.6,7.7,20.2,12.9c0.5,0.4,0.7,0.5,1,1c1.2,1.7,4.1,4.1,5.7,6.2
	c0.3,0.4,0.2,1.1,0.5,1.6c0.6,0.9,1.5,1.3,2.1,2.1c0.3,0.5,0.2,1.1,0.5,1.5c0.4,0.6,0.9,1.5,1.5,2.6c0.2,0.4,0.9,0.7,1,1
	c0.9,1.7,1.3,3.8,2.1,5.7c0.8,2,1.9,3.7,2.6,5.7c2,5.9,3.3,12.9,4.1,20.1c2,20.8-2.1,39.4-9.8,53.2c-3.6,7.2-8.6,13.1-14.5,18.1
	C479.1,264.7,471.7,268.1,464.4,271.7L464.4,271.7z M439.6,141.5c-4.5,0.3-7.2,2.4-10.9,3.6c-2.4,2.2-5.4,3.9-7.2,6.7
	c-3,1.7-3.8,5.5-6.2,7.7c-2,5-3.9,10.6-5.2,17.1c-1.2,6.4-2,13.6-2.1,20.7c-0.1,17.8,3.7,35.5,10.8,46c4.2,5.1,9.3,9.3,15.5,12.4
	c3.6,0.3,6.4,1.5,10.3,1.6c2.2-0.8,5.8,0,7.2-1.6c3.2,0.2,3.9-1.9,6.7-2.1c1.5-1.5,3.1-2.7,5.2-3.6c1.9-2.1,3.7-4.2,5.7-6.2
	c1-1.5,1.6-3.6,3.1-4.7c9-17.2,10-48.7,4.1-68.7c-2.2-7.3-5.3-13.2-8.8-18.1c-3.8-3.9-8.3-7.2-13.4-9.8c-4.1-0.9-8-2-13.4-1.5
	c-0.3,0-0.6,0.1-0.5,0.5C440.3,141.5,440,141.5,439.6,141.5L439.6,141.5z M548.7,127c8.1,0.3,17.6-0.7,24.8,0.5c1.6,2.5,1,5.5,1,8.3
	c0.6,37.9,0,78.6,0,117.3c0,3.1,0.1,6.3,0,9.3c-0.1,2.6,0.6,5.4-1,7.8c-3.6,0.9-8.8,0.5-13.4,0.5c-4.9,0-9.7,0.7-12.9-1
	c-0.9-45.8-0.9-95.2,0-141.1C547.4,127.8,547.9,127.3,548.7,127L548.7,127z M610.7,127H635c2.2,3,2.9,7.5,3.6,11.9
	c7.3,27.8,14.5,55.7,21.2,84.2c1.6,0.2,1.1-1.7,1.6-2.6c0.7-0.7,0.3-2.4,1-3.1c0.3-2.3,1.7-3.5,1.6-6.2c1.8-3.5,2.4-8.3,4.1-11.9
	c2.1-8.4,4.9-16.2,7.3-24.3c2.3-8.4,5.4-16,7.2-24.8c3.4-7.1,4.2-16.8,8.3-23.2h10.3c3.7,7,5.1,16.3,8.3,23.8c2.1,8.4,5,16,7.2,24.3
	c5.1,16.1,10.4,32,15,48.6c2.1-3.1,2.1-8.3,3.6-11.9c0.9-4.1,1.7-8.3,3.1-11.9c4-16.4,7.8-32.9,12.4-48.6c1.7-8.2,3.4-16.6,6.2-23.8
	c6-0.9,15.2-0.9,21.2,0c0.5,6.1-2.3,12.7-4.1,18.1c-1,6.6-3.4,11.7-4.7,18.1c-3.7,11.7-6.5,24.1-10.3,35.7
	c-2.9,12.4-6.8,23.8-9.8,36.2c-2,5.7-3.4,12-5.2,18.1c-2,5.6-2.7,12.5-5.7,17.1h-14.5c-3.7-6.5-5-15.3-8.3-22.2
	c-7.2-22.8-15.2-44.7-22.2-67.7c-2.4,2.5-2.4,7.6-4.1,10.8c-1.1,3.9-2.2,7.8-3.6,11.4c-2,7.9-5,14.6-6.7,22.7
	c-2.9,7.1-5,15-7.2,22.8c-3,6.8-4.1,15.5-7.8,21.7c-3.8,1.2-9.8,0.2-14.5,0.5c-3.6-4.1-4-11.5-6.2-17.1c-1.7-5.8-2.9-12.2-5.1-17.6
	c-2.8-12.6-7-23.7-9.8-36.2c-3.7-11.6-6.9-23.7-10.3-35.7c-1.9-5.7-3.3-11.8-5.2-17.6c-0.9-6.2-5.1-11.8-3.6-18.6
	C609.5,127.5,610.1,127.2,610.7,127L610.7,127z M814.8,127c8.1,0.3,17.5-0.7,24.8,0.5c1.8,5.4,1,11.2,1,17V253
	c0,5.9,0.7,11.6-1,17.1c-5.6,0.6-13.8,0.9-20.7,0.5c-2-0.1-4.4,0.5-5.7-1c-1.8-5.4-1-11.1-1-17.1V145.1c0-6.5-0.6-12.8,1-17.1
	C813.6,127.5,814.2,127.2,814.8,127L814.8,127z"/>
</svg>
