<svg width="16" height="15" viewBox="0 0 16 15" fill="none" xmlns="http://www.w3.org/2000/svg">
<path d="M15.5686 6.80311C15.748 6.67182 15.8811 6.48868 15.9492 6.27935C16.0172 6.07003 16.0169 5.84501 15.9483 5.63587C15.8796 5.42672 15.746 5.24393 15.5663 5.11312C15.3865 4.98231 15.1696 4.91005 14.9459 4.90646L10.6017 4.74524C10.5803 4.7438 10.5599 4.73631 10.5427 4.72369C10.5256 4.71107 10.5126 4.69386 10.5052 4.67412L9.004 0.691163C8.92857 0.488525 8.79158 0.313548 8.61157 0.189924C8.43156 0.0663003 8.21723 0 7.99759 0C7.77795 0 7.56361 0.0663003 7.3836 0.189924C7.20359 0.313548 7.0666 0.488525 6.99118 0.691163L5.49483 4.68834C5.48744 4.70808 5.47439 4.7253 5.45726 4.73792C5.44013 4.75054 5.41965 4.75802 5.3983 4.75947L1.05408 4.92068C0.830399 4.92427 0.613474 4.99654 0.433718 5.12735C0.253961 5.25815 0.120387 5.44095 0.0517238 5.65009C-0.0169391 5.85924 -0.0172472 6.08425 0.0508428 6.29358C0.118933 6.5029 0.252006 6.68605 0.431404 6.81733L3.8392 9.44893C3.85626 9.46211 3.86901 9.47992 3.87587 9.50014C3.88273 9.52037 3.88341 9.54213 3.87782 9.56273L2.70488 13.6453C2.6441 13.8532 2.64999 14.0744 2.72174 14.2789C2.7935 14.4834 2.92764 14.6612 3.10592 14.7881C3.2842 14.9151 3.49796 14.985 3.71812 14.9883C3.93828 14.9917 4.15416 14.9284 4.33637 14.807L7.93725 12.4361C7.95499 12.4241 7.97603 12.4177 7.99759 12.4177C8.01914 12.4177 8.04019 12.4241 8.05792 12.4361L11.6588 14.807C11.8386 14.9325 12.0537 15 12.2742 15C12.4948 15 12.7099 14.9325 12.8897 14.807C13.068 14.6812 13.2023 14.5043 13.274 14.3005C13.3457 14.0967 13.3514 13.8761 13.2903 13.669L12.1077 9.57221C12.1014 9.55164 12.1018 9.52968 12.1087 9.50931C12.1156 9.48895 12.1287 9.47117 12.1463 9.45841L15.5686 6.80311Z" fill="#FDDB77"/>
</svg>
