<?xml version="1.0" encoding="utf-8"?>
<!-- Generator: Adobe Illustrator 23.1.0, SVG Export Plug-In . SVG Version: 6.00 Build 0)  -->
<svg version="1.1" id="Слой_1" xmlns="http://www.w3.org/2000/svg" xmlns:xlink="http://www.w3.org/1999/xlink" x="0px" y="0px"
	 viewBox="0 0 2500 971.1" style="enable-background:new 0 0 2500 971.1;" xml:space="preserve">
<style type="text/css">
	.st0{fill:#2566AF;}
	.st1{fill:#E6A540;}
	.st2{fill:none;}
</style>
<g>
	<path class="st0" d="M1110.1,804.6H938.4l107.3-659.4h171.7L1110.1,804.6z M794,145.2L630.3,598.7L611,501.1l0,0l-57.8-296.5
		c0,0-7-59.4-81.4-59.4H201.2l-3.2,11.1c0,0,82.7,17.2,179.6,75.4l149.2,572.9h178.9l273.1-659.4L794,145.2L794,145.2z
		 M2144.3,804.6H2302l-137.4-659.4h-138c-63.7,0-79.3,49.1-79.3,49.1l-256,610.3h179l35.8-97.9h218.2L2144.3,804.6L2144.3,804.6z
		 M1955.4,571.3l90.2-246.8l50.7,246.8H1955.4z M1704.7,303.8l24.5-141.6c0,0-75.6-28.8-154.4-28.8c-85.2,0-287.5,37.2-287.5,218.3
		c0,170.4,237.5,172.5,237.5,262s-213,73.4-283.3,17L1216,778.8c0,0,76.7,37.2,193.8,37.2c117.2,0,293.9-60.7,293.9-225.8
		c0-171.5-239.6-187.4-239.6-262C1464,253.7,1631.2,263.3,1704.7,303.8L1704.7,303.8z"/>
</g>
<path class="st1" d="M611,501.1l-57.8-296.5c0,0-7-59.4-81.4-59.4H201.2l-3.2,11.1c0,0,130.1,27,254.8,127.9
	C572.1,380.8,611,501.1,611,501.1z"/>
<path class="st2" d="M0-775.3h2500v2500H0V-775.3z"/>
</svg>
