<?xml version="1.0" encoding="utf-8"?>
<!-- Generator: Adobe Illustrator 23.1.0, SVG Export Plug-In . SVG Version: 6.00 Build 0)  -->
<svg version="1.1" id="Слой_1" xmlns="http://www.w3.org/2000/svg" xmlns:xlink="http://www.w3.org/1999/xlink" x="0px" y="0px"
	 viewBox="0 0 120 39.3" style="enable-background:new 0 0 120 39.3;" xml:space="preserve">
<style type="text/css">
	.st0{fill:#106DB3;}
</style>
<path class="st0" d="M20.2,4.9c2.3,0,4.6,0.5,6.7,1.5l1,0.5l-1.4,1.2L24.4,6l-3.6,3.2l-2.1-2.3L12,12.8l4.3,4.6l-1.7,1.4l4.2,4.6
	L17.2,25l6,6.6l3.6-3.2l3.1,3.5c-0.6,0.5-1.3,0.9-2,1.3c-2.3,1.3-4.9,2-7.5,2C11.9,35.1,5,28.3,5,20C5,11.7,11.8,4.9,20.2,4.9z
	 M17.4,19.1l3.6-3.2l3.3,3.6l-3.6,3.2L17.4,19.1z M20,25.3l3.6-3.3l3.3,3.6l-3.6,3.2L20,25.3z M14.9,13l3.6-3.2l3.3,3.6l-3.6,3.2
	L14.9,13z M21.5,11.2l2.7-2.4l2.5,2.7L24,13.9L21.5,11.2z M26.4,22.3l2.7-2.4l2.5,2.7L28.8,25L26.4,22.3z M28.8,27.8l2.7-2.4
	l2.4,2.7l-2.7,2.4L28.8,27.8z M29.9,15.3l1.8-1.6l1.6,1.8l-1.8,1.6L29.9,15.3z M27.5,10l1.8-1.6l1.6,1.8l-1.8,1.6L27.5,10z
	 M32.2,20.7L34,19l1.7,1.8l-1.8,1.6L32.2,20.7z M24,16.6l2.7-2.4l2.4,2.7l-2.7,2.4L24,16.6z M42.9,12.6h1.5l2.3,8.7h0.1l1.7-8.7h1.9
	l-2.7,11.7h-1.8l-2.2-8.2h-0.1l-2.2,8.2h-1.8L37,12.6h1.8l1.8,8.7h0.1L42.9,12.6z M52.7,19.3h3.8c-0.1-1.7-0.9-2.4-1.8-2.4
	C53.7,16.9,52.9,17.7,52.7,19.3 M57.8,22.5v1.3c-0.7,0.4-1.7,0.8-2.9,0.8c-2.8,0-3.9-1.7-3.9-4.3c0-2.5,1.3-4.3,3.7-4.3
	c2.1,0,3.3,1.3,3.3,4v0.6h-5.4c0,2,0.8,2.9,2.5,2.9C56.1,23.3,56.9,23,57.8,22.5 M61.9,23.2c0.5,0.2,1.1,0.3,1.5,0.3
	c1.2,0,2.1-0.8,2.1-3.4c0-2.1-0.8-2.8-1.9-2.8c-0.7,0-1.1,0.2-1.8,0.5V23.2z M61.9,16.5c0.5-0.3,1.3-0.6,2.2-0.6
	c2,0,3.1,1.4,3.1,4.1c0,3.1-1.5,4.6-3.9,4.6c-1.1,0-2.2-0.3-3.2-0.8V12.2l1.7-0.4L61.9,16.5L61.9,16.5z M75,24.3H74L70.6,16h-0.1
	v8.3H69V12.6h2l3.7,9.2h0.1l3.5-9.2h2v11.7h-1.8v-8.5h-0.1L75,24.3z M87.5,20.1c0-2.2-0.9-3.2-2-3.2c-1.1,0-2,0.9-2,3.2
	c0,2.3,0.9,3.2,2,3.2S87.5,22.4,87.5,20.1 M81.8,20.1c0-2.9,1.6-4.3,3.8-4.3s3.8,1.4,3.8,4.3c0,2.8-1.5,4.3-3.8,4.3
	S81.8,23,81.8,20.1 M90.6,17c0.7-0.4,2.3-1.2,4.2-1.2c2,0,2.7,0.8,2.7,2.5v6h-1.7v-5.6c0-1.3-0.6-1.5-1.5-1.5c-0.7,0-1.5,0.3-2,0.6
	v6.5h-1.7L90.6,17z M101.1,19.3h3.8c-0.1-1.7-0.9-2.4-1.8-2.4C102,16.9,101.3,17.7,101.1,19.3 M106.2,22.4v1.3
	c-0.7,0.4-1.7,0.8-2.9,0.8c-2.8,0-3.9-1.7-3.9-4.3c0-2.5,1.3-4.3,3.7-4.3c2.1,0,3.3,1.3,3.3,4v0.6h-5.4c0,2,0.8,2.9,2.5,2.9
	C104.4,23.3,105.3,23,106.2,22.4 M113.3,15.8h1.7l-3,8.3c-0.8,2.3-1.8,3.5-3.7,3.5v-1.4c1.1,0,1.8-0.9,2.2-2.1l-3.2-8.3h1.8l2.1,6.1
	h0.1L113.3,15.8z"/>
</svg>
